<mxfile host="app.diagrams.net" modified="2021-05-28T08:12:11.202Z" agent="5.0 (Macintosh; Intel Mac OS X 10_15_7) AppleWebKit/537.36 (KHTML, like Gecko) Chrome/90.0.4430.212 Safari/537.36" etag="Smv8iMAad9ic28U0Ht95" version="14.7.2" type="github">
  <diagram id="se8A-JM5ka0p8QmDvKIA" name="Page-1">
    <mxGraphModel dx="905" dy="619" grid="1" gridSize="10" guides="1" tooltips="1" connect="1" arrows="1" fold="1" page="1" pageScale="1" pageWidth="827" pageHeight="1169" math="0" shadow="0">
      <root>
        <mxCell id="0" />
        <mxCell id="1" parent="0" />
        <mxCell id="weNy3KT9s2WzeFUNVDEB-32" value="&lt;font face=&quot;Times New Roman&quot; style=&quot;font-size: 18px&quot;&gt;&lt;b&gt;Dimensions&lt;/b&gt;&lt;/font&gt;" style="text;html=1;strokeColor=none;fillColor=none;align=center;verticalAlign=middle;whiteSpace=wrap;rounded=0;" vertex="1" parent="1">
          <mxGeometry x="164" y="110" width="131" height="50" as="geometry" />
        </mxCell>
        <mxCell id="weNy3KT9s2WzeFUNVDEB-33" value="&lt;font style=&quot;font-size: 18px&quot;&gt;&lt;b&gt;Hierarchies&lt;/b&gt;&lt;/font&gt;" style="text;html=1;strokeColor=none;fillColor=none;align=center;verticalAlign=middle;whiteSpace=wrap;rounded=0;rotation=270;" vertex="1" parent="1">
          <mxGeometry x="30" y="369" width="125" height="55" as="geometry" />
        </mxCell>
        <mxCell id="weNy3KT9s2WzeFUNVDEB-34" value="" style="shape=flexArrow;endArrow=classic;html=1;labelBackgroundColor=#000000;fillColor=#000000;width=4;endSize=7;fontFamily=Times New Roman;" edge="1" parent="1">
          <mxGeometry width="50" height="50" relative="1" as="geometry">
            <mxPoint x="140" y="230" as="sourcePoint" />
            <mxPoint x="140" y="580" as="targetPoint" />
            <Array as="points" />
          </mxGeometry>
        </mxCell>
        <mxCell id="weNy3KT9s2WzeFUNVDEB-136" value="" style="shape=table;html=1;whiteSpace=wrap;startSize=0;container=1;collapsible=0;childLayout=tableLayout;fontFamily=Times New Roman;fontSize=14;" vertex="1" parent="1">
          <mxGeometry x="164" y="160" width="596" height="418" as="geometry" />
        </mxCell>
        <mxCell id="weNy3KT9s2WzeFUNVDEB-145" value="" style="shape=partialRectangle;html=1;whiteSpace=wrap;collapsible=0;dropTarget=0;pointerEvents=0;fillColor=none;top=0;left=0;bottom=0;right=0;points=[[0,0.5],[1,0.5]];portConstraint=eastwest;fontStyle=1;fontFamily=Times New Roman;fontSize=18;" vertex="1" parent="weNy3KT9s2WzeFUNVDEB-136">
          <mxGeometry width="596" height="62" as="geometry" />
        </mxCell>
        <mxCell id="weNy3KT9s2WzeFUNVDEB-146" value="&lt;font style=&quot;font-size: 16px&quot;&gt;&lt;b&gt;Time&lt;/b&gt;&lt;/font&gt;" style="shape=partialRectangle;html=1;whiteSpace=wrap;connectable=0;overflow=hidden;fillColor=none;top=0;left=0;bottom=0;right=0;fontFamily=Times New Roman;" vertex="1" parent="weNy3KT9s2WzeFUNVDEB-145">
          <mxGeometry width="77" height="62" as="geometry" />
        </mxCell>
        <mxCell id="weNy3KT9s2WzeFUNVDEB-147" value="&lt;font style=&quot;font-size: 16px&quot;&gt;&lt;b&gt;Hotel&lt;/b&gt;&lt;/font&gt;" style="shape=partialRectangle;html=1;whiteSpace=wrap;connectable=0;overflow=hidden;fillColor=none;top=0;left=0;bottom=0;right=0;fontFamily=Times New Roman;" vertex="1" parent="weNy3KT9s2WzeFUNVDEB-145">
          <mxGeometry x="77" width="98" height="62" as="geometry" />
        </mxCell>
        <mxCell id="weNy3KT9s2WzeFUNVDEB-148" value="&lt;font style=&quot;font-size: 16px&quot;&gt;&lt;b&gt;Rooms&lt;/b&gt;&lt;/font&gt;" style="shape=partialRectangle;html=1;whiteSpace=wrap;connectable=0;overflow=hidden;fillColor=none;top=0;left=0;bottom=0;right=0;fontFamily=Times New Roman;" vertex="1" parent="weNy3KT9s2WzeFUNVDEB-145">
          <mxGeometry x="175" width="71" height="62" as="geometry" />
        </mxCell>
        <mxCell id="weNy3KT9s2WzeFUNVDEB-149" value="&lt;font style=&quot;font-size: 16px&quot;&gt;&lt;b&gt;Customer&lt;/b&gt;&lt;/font&gt;" style="shape=partialRectangle;html=1;whiteSpace=wrap;connectable=0;overflow=hidden;fillColor=none;top=0;left=0;bottom=0;right=0;fontFamily=Times New Roman;" vertex="1" parent="weNy3KT9s2WzeFUNVDEB-145">
          <mxGeometry x="246" width="88" height="62" as="geometry" />
        </mxCell>
        <mxCell id="weNy3KT9s2WzeFUNVDEB-150" value="&lt;font style=&quot;font-size: 16px&quot;&gt;&lt;b&gt;Manager&lt;/b&gt;&lt;/font&gt;" style="shape=partialRectangle;html=1;whiteSpace=wrap;connectable=0;overflow=hidden;fillColor=none;top=0;left=0;bottom=0;right=0;fontFamily=Times New Roman;" vertex="1" parent="weNy3KT9s2WzeFUNVDEB-145">
          <mxGeometry x="334" width="94" height="62" as="geometry" />
        </mxCell>
        <mxCell id="weNy3KT9s2WzeFUNVDEB-151" value="&lt;font style=&quot;font-size: 16px&quot;&gt;&lt;b&gt;Staff&lt;/b&gt;&lt;/font&gt;" style="shape=partialRectangle;html=1;whiteSpace=wrap;connectable=0;overflow=hidden;fillColor=none;top=0;left=0;bottom=0;right=0;fontFamily=Times New Roman;" vertex="1" parent="weNy3KT9s2WzeFUNVDEB-145">
          <mxGeometry x="428" width="73" height="62" as="geometry" />
        </mxCell>
        <mxCell id="weNy3KT9s2WzeFUNVDEB-152" value="&lt;font size=&quot;1&quot;&gt;&lt;b&gt;Inventory&lt;/b&gt;&lt;/font&gt;" style="shape=partialRectangle;html=1;whiteSpace=wrap;connectable=0;overflow=hidden;fillColor=none;top=0;left=0;bottom=0;right=0;fontFamily=Times New Roman;" vertex="1" parent="weNy3KT9s2WzeFUNVDEB-145">
          <mxGeometry x="501" width="95" height="62" as="geometry" />
        </mxCell>
        <mxCell id="weNy3KT9s2WzeFUNVDEB-153" value="" style="shape=partialRectangle;html=1;whiteSpace=wrap;collapsible=0;dropTarget=0;pointerEvents=0;fillColor=none;top=0;left=0;bottom=0;right=0;points=[[0,0.5],[1,0.5]];portConstraint=eastwest;fontFamily=Times New Roman;fontSize=14;" vertex="1" parent="weNy3KT9s2WzeFUNVDEB-136">
          <mxGeometry y="62" width="596" height="45" as="geometry" />
        </mxCell>
        <mxCell id="weNy3KT9s2WzeFUNVDEB-154" value="&lt;font style=&quot;font-size: 14px&quot;&gt;Year&lt;/font&gt;" style="shape=partialRectangle;html=1;whiteSpace=wrap;connectable=0;overflow=hidden;fillColor=none;top=0;left=0;bottom=0;right=0;fontFamily=Times New Roman;" vertex="1" parent="weNy3KT9s2WzeFUNVDEB-153">
          <mxGeometry width="77" height="45" as="geometry" />
        </mxCell>
        <mxCell id="weNy3KT9s2WzeFUNVDEB-155" value="&lt;font style=&quot;font-size: 14px&quot;&gt;Hotel Line&lt;/font&gt;" style="shape=partialRectangle;html=1;whiteSpace=wrap;connectable=0;overflow=hidden;fillColor=none;top=0;left=0;bottom=0;right=0;fontFamily=Times New Roman;" vertex="1" parent="weNy3KT9s2WzeFUNVDEB-153">
          <mxGeometry x="77" width="98" height="45" as="geometry" />
        </mxCell>
        <mxCell id="weNy3KT9s2WzeFUNVDEB-156" value="&lt;font style=&quot;font-size: 14px&quot;&gt;&lt;font style=&quot;font-size: 14px&quot;&gt;Room typ&lt;/font&gt;e&lt;/font&gt;" style="shape=partialRectangle;html=1;whiteSpace=wrap;connectable=0;overflow=hidden;fillColor=none;top=0;left=0;bottom=0;right=0;fontFamily=Times New Roman;" vertex="1" parent="weNy3KT9s2WzeFUNVDEB-153">
          <mxGeometry x="175" width="71" height="45" as="geometry" />
        </mxCell>
        <mxCell id="weNy3KT9s2WzeFUNVDEB-157" value="&lt;font style=&quot;font-size: 14px&quot;&gt;Customer Name&lt;/font&gt;" style="shape=partialRectangle;html=1;whiteSpace=wrap;connectable=0;overflow=hidden;fillColor=none;top=0;left=0;bottom=0;right=0;fontFamily=Times New Roman;" vertex="1" parent="weNy3KT9s2WzeFUNVDEB-153">
          <mxGeometry x="246" width="88" height="45" as="geometry" />
        </mxCell>
        <mxCell id="weNy3KT9s2WzeFUNVDEB-158" value="&lt;span style=&quot;font-size: 14px&quot;&gt;Manager&lt;br&gt;Name&lt;/span&gt;" style="shape=partialRectangle;html=1;whiteSpace=wrap;connectable=0;overflow=hidden;fillColor=none;top=0;left=0;bottom=0;right=0;fontFamily=Times New Roman;" vertex="1" parent="weNy3KT9s2WzeFUNVDEB-153">
          <mxGeometry x="334" width="94" height="45" as="geometry" />
        </mxCell>
        <mxCell id="weNy3KT9s2WzeFUNVDEB-159" value="&lt;span style=&quot;font-size: 14px&quot;&gt;Staff Name&lt;/span&gt;" style="shape=partialRectangle;html=1;whiteSpace=wrap;connectable=0;overflow=hidden;fillColor=none;top=0;left=0;bottom=0;right=0;fontFamily=Times New Roman;" vertex="1" parent="weNy3KT9s2WzeFUNVDEB-153">
          <mxGeometry x="428" width="73" height="45" as="geometry" />
        </mxCell>
        <mxCell id="weNy3KT9s2WzeFUNVDEB-160" value="&lt;font style=&quot;font-size: 14px&quot;&gt;Type&lt;/font&gt;" style="shape=partialRectangle;html=1;whiteSpace=wrap;connectable=0;overflow=hidden;fillColor=none;top=0;left=0;bottom=0;right=0;fontFamily=Times New Roman;" vertex="1" parent="weNy3KT9s2WzeFUNVDEB-153">
          <mxGeometry x="501" width="95" height="45" as="geometry" />
        </mxCell>
        <mxCell id="weNy3KT9s2WzeFUNVDEB-161" value="" style="shape=partialRectangle;html=1;whiteSpace=wrap;collapsible=0;dropTarget=0;pointerEvents=0;fillColor=none;top=0;left=0;bottom=0;right=0;points=[[0,0.5],[1,0.5]];portConstraint=eastwest;fontFamily=Times New Roman;" vertex="1" parent="weNy3KT9s2WzeFUNVDEB-136">
          <mxGeometry y="107" width="596" height="43" as="geometry" />
        </mxCell>
        <mxCell id="weNy3KT9s2WzeFUNVDEB-162" value="&lt;font style=&quot;font-size: 14px&quot;&gt;Quarter&lt;/font&gt;" style="shape=partialRectangle;html=1;whiteSpace=wrap;connectable=0;overflow=hidden;fillColor=none;top=0;left=0;bottom=0;right=0;fontFamily=Times New Roman;" vertex="1" parent="weNy3KT9s2WzeFUNVDEB-161">
          <mxGeometry width="77" height="43" as="geometry" />
        </mxCell>
        <mxCell id="weNy3KT9s2WzeFUNVDEB-163" value="&lt;font style=&quot;font-size: 14px&quot;&gt;Branch name&lt;/font&gt;" style="shape=partialRectangle;html=1;whiteSpace=wrap;connectable=0;overflow=hidden;fillColor=none;top=0;left=0;bottom=0;right=0;fontFamily=Times New Roman;" vertex="1" parent="weNy3KT9s2WzeFUNVDEB-161">
          <mxGeometry x="77" width="98" height="43" as="geometry" />
        </mxCell>
        <mxCell id="weNy3KT9s2WzeFUNVDEB-164" value="&lt;font style=&quot;font-size: 14px&quot;&gt;Room size&lt;/font&gt;" style="shape=partialRectangle;html=1;whiteSpace=wrap;connectable=0;overflow=hidden;fillColor=none;top=0;left=0;bottom=0;right=0;fontFamily=Times New Roman;" vertex="1" parent="weNy3KT9s2WzeFUNVDEB-161">
          <mxGeometry x="175" width="71" height="43" as="geometry" />
        </mxCell>
        <mxCell id="weNy3KT9s2WzeFUNVDEB-165" value="&lt;span style=&quot;font-size: 14px&quot;&gt;Address&lt;/span&gt;" style="shape=partialRectangle;html=1;whiteSpace=wrap;connectable=0;overflow=hidden;fillColor=none;top=0;left=0;bottom=0;right=0;fontFamily=Times New Roman;" vertex="1" parent="weNy3KT9s2WzeFUNVDEB-161">
          <mxGeometry x="246" width="88" height="43" as="geometry" />
        </mxCell>
        <mxCell id="weNy3KT9s2WzeFUNVDEB-166" value="&lt;span style=&quot;font-size: 14px&quot;&gt;Manager ID&lt;/span&gt;" style="shape=partialRectangle;html=1;whiteSpace=wrap;connectable=0;overflow=hidden;fillColor=none;top=0;left=0;bottom=0;right=0;fontFamily=Times New Roman;" vertex="1" parent="weNy3KT9s2WzeFUNVDEB-161">
          <mxGeometry x="334" width="94" height="43" as="geometry" />
        </mxCell>
        <mxCell id="weNy3KT9s2WzeFUNVDEB-167" value="&lt;span style=&quot;font-size: 14px&quot;&gt;Staff ID&lt;/span&gt;" style="shape=partialRectangle;html=1;whiteSpace=wrap;connectable=0;overflow=hidden;fillColor=none;top=0;left=0;bottom=0;right=0;fontFamily=Times New Roman;" vertex="1" parent="weNy3KT9s2WzeFUNVDEB-161">
          <mxGeometry x="428" width="73" height="43" as="geometry" />
        </mxCell>
        <mxCell id="weNy3KT9s2WzeFUNVDEB-168" value="&lt;font style=&quot;font-size: 14px&quot;&gt;Status&lt;/font&gt;" style="shape=partialRectangle;html=1;whiteSpace=wrap;connectable=0;overflow=hidden;fillColor=none;top=0;left=0;bottom=0;right=0;fontFamily=Times New Roman;" vertex="1" parent="weNy3KT9s2WzeFUNVDEB-161">
          <mxGeometry x="501" width="95" height="43" as="geometry" />
        </mxCell>
        <mxCell id="weNy3KT9s2WzeFUNVDEB-169" value="" style="shape=partialRectangle;html=1;whiteSpace=wrap;collapsible=0;dropTarget=0;pointerEvents=0;fillColor=none;top=0;left=0;bottom=0;right=0;points=[[0,0.5],[1,0.5]];portConstraint=eastwest;fontFamily=Times New Roman;" vertex="1" parent="weNy3KT9s2WzeFUNVDEB-136">
          <mxGeometry y="150" width="596" height="45" as="geometry" />
        </mxCell>
        <mxCell id="weNy3KT9s2WzeFUNVDEB-170" value="&lt;font size=&quot;1&quot;&gt;Month&lt;/font&gt;" style="shape=partialRectangle;html=1;whiteSpace=wrap;connectable=0;overflow=hidden;fillColor=none;top=0;left=0;bottom=0;right=0;fontFamily=Times New Roman;" vertex="1" parent="weNy3KT9s2WzeFUNVDEB-169">
          <mxGeometry width="77" height="45" as="geometry" />
        </mxCell>
        <mxCell id="weNy3KT9s2WzeFUNVDEB-171" value="&lt;font size=&quot;1&quot;&gt;Branch code&lt;/font&gt;" style="shape=partialRectangle;html=1;whiteSpace=wrap;connectable=0;overflow=hidden;fillColor=none;top=0;left=0;bottom=0;right=0;fontFamily=Times New Roman;" vertex="1" parent="weNy3KT9s2WzeFUNVDEB-169">
          <mxGeometry x="77" width="98" height="45" as="geometry" />
        </mxCell>
        <mxCell id="weNy3KT9s2WzeFUNVDEB-172" value="&lt;font size=&quot;1&quot;&gt;Number of beds&lt;/font&gt;" style="shape=partialRectangle;html=1;whiteSpace=wrap;connectable=0;overflow=hidden;fillColor=none;top=0;left=0;bottom=0;right=0;fontFamily=Times New Roman;" vertex="1" parent="weNy3KT9s2WzeFUNVDEB-169">
          <mxGeometry x="175" width="71" height="45" as="geometry" />
        </mxCell>
        <mxCell id="weNy3KT9s2WzeFUNVDEB-173" value="&lt;span style=&quot;font-size: 14px&quot;&gt;C_Age&lt;/span&gt;" style="shape=partialRectangle;html=1;whiteSpace=wrap;connectable=0;overflow=hidden;fillColor=none;top=0;left=0;bottom=0;right=0;fontFamily=Times New Roman;" vertex="1" parent="weNy3KT9s2WzeFUNVDEB-169">
          <mxGeometry x="246" width="88" height="45" as="geometry" />
        </mxCell>
        <mxCell id="weNy3KT9s2WzeFUNVDEB-174" value="&lt;span style=&quot;font-size: 14px&quot;&gt;M_Age&lt;/span&gt;" style="shape=partialRectangle;html=1;whiteSpace=wrap;connectable=0;overflow=hidden;fillColor=none;top=0;left=0;bottom=0;right=0;fontFamily=Times New Roman;" vertex="1" parent="weNy3KT9s2WzeFUNVDEB-169">
          <mxGeometry x="334" width="94" height="45" as="geometry" />
        </mxCell>
        <mxCell id="weNy3KT9s2WzeFUNVDEB-175" value="&lt;span style=&quot;font-size: 14px&quot;&gt;S_Age&lt;/span&gt;" style="shape=partialRectangle;html=1;whiteSpace=wrap;connectable=0;overflow=hidden;fillColor=none;top=0;left=0;bottom=0;right=0;fontFamily=Times New Roman;" vertex="1" parent="weNy3KT9s2WzeFUNVDEB-169">
          <mxGeometry x="428" width="73" height="45" as="geometry" />
        </mxCell>
        <mxCell id="weNy3KT9s2WzeFUNVDEB-176" value="&lt;font style=&quot;font-size: 14px&quot;&gt;Last Updated&lt;/font&gt;" style="shape=partialRectangle;html=1;whiteSpace=wrap;connectable=0;overflow=hidden;fillColor=none;top=0;left=0;bottom=0;right=0;fontFamily=Times New Roman;" vertex="1" parent="weNy3KT9s2WzeFUNVDEB-169">
          <mxGeometry x="501" width="95" height="45" as="geometry" />
        </mxCell>
        <mxCell id="weNy3KT9s2WzeFUNVDEB-177" value="" style="shape=partialRectangle;html=1;whiteSpace=wrap;collapsible=0;dropTarget=0;pointerEvents=0;fillColor=none;top=0;left=0;bottom=0;right=0;points=[[0,0.5],[1,0.5]];portConstraint=eastwest;fontFamily=Times New Roman;" vertex="1" parent="weNy3KT9s2WzeFUNVDEB-136">
          <mxGeometry y="195" width="596" height="43" as="geometry" />
        </mxCell>
        <mxCell id="weNy3KT9s2WzeFUNVDEB-178" value="&lt;font style=&quot;font-size: 14px&quot;&gt;Date&lt;/font&gt;" style="shape=partialRectangle;html=1;whiteSpace=wrap;connectable=0;overflow=hidden;fillColor=none;top=0;left=0;bottom=0;right=0;fontFamily=Times New Roman;" vertex="1" parent="weNy3KT9s2WzeFUNVDEB-177">
          <mxGeometry width="77" height="43" as="geometry" />
        </mxCell>
        <mxCell id="weNy3KT9s2WzeFUNVDEB-179" value="&lt;font style=&quot;font-size: 14px&quot;&gt;Region&lt;/font&gt;" style="shape=partialRectangle;html=1;whiteSpace=wrap;connectable=0;overflow=hidden;fillColor=none;top=0;left=0;bottom=0;right=0;fontFamily=Times New Roman;" vertex="1" parent="weNy3KT9s2WzeFUNVDEB-177">
          <mxGeometry x="77" width="98" height="43" as="geometry" />
        </mxCell>
        <mxCell id="weNy3KT9s2WzeFUNVDEB-180" value="&lt;font style=&quot;font-size: 14px&quot;&gt;Type of bed&lt;/font&gt;" style="shape=partialRectangle;html=1;whiteSpace=wrap;connectable=0;overflow=hidden;fillColor=none;top=0;left=0;bottom=0;right=0;fontFamily=Times New Roman;" vertex="1" parent="weNy3KT9s2WzeFUNVDEB-177">
          <mxGeometry x="175" width="71" height="43" as="geometry" />
        </mxCell>
        <mxCell id="weNy3KT9s2WzeFUNVDEB-181" value="&lt;span style=&quot;font-size: 14px&quot;&gt;Type of Stay&lt;/span&gt;" style="shape=partialRectangle;html=1;whiteSpace=wrap;connectable=0;overflow=hidden;fillColor=none;top=0;left=0;bottom=0;right=0;fontFamily=Times New Roman;" vertex="1" parent="weNy3KT9s2WzeFUNVDEB-177">
          <mxGeometry x="246" width="88" height="43" as="geometry" />
        </mxCell>
        <mxCell id="weNy3KT9s2WzeFUNVDEB-182" value="&lt;span style=&quot;font-size: 14px&quot;&gt;Salary&lt;/span&gt;" style="shape=partialRectangle;html=1;whiteSpace=wrap;connectable=0;overflow=hidden;fillColor=none;top=0;left=0;bottom=0;right=0;fontFamily=Times New Roman;" vertex="1" parent="weNy3KT9s2WzeFUNVDEB-177">
          <mxGeometry x="334" width="94" height="43" as="geometry" />
        </mxCell>
        <mxCell id="weNy3KT9s2WzeFUNVDEB-183" value="&lt;span style=&quot;font-size: 14px&quot;&gt;Position&lt;/span&gt;" style="shape=partialRectangle;html=1;whiteSpace=wrap;connectable=0;overflow=hidden;fillColor=none;top=0;left=0;bottom=0;right=0;fontFamily=Times New Roman;" vertex="1" parent="weNy3KT9s2WzeFUNVDEB-177">
          <mxGeometry x="428" width="73" height="43" as="geometry" />
        </mxCell>
        <mxCell id="weNy3KT9s2WzeFUNVDEB-184" value="&lt;font style=&quot;font-size: 14px&quot;&gt;Food Stock&lt;/font&gt;" style="shape=partialRectangle;html=1;whiteSpace=wrap;connectable=0;overflow=hidden;fillColor=none;top=0;left=0;bottom=0;right=0;fontFamily=Times New Roman;" vertex="1" parent="weNy3KT9s2WzeFUNVDEB-177">
          <mxGeometry x="501" width="95" height="43" as="geometry" />
        </mxCell>
        <mxCell id="weNy3KT9s2WzeFUNVDEB-186" style="shape=partialRectangle;html=1;whiteSpace=wrap;collapsible=0;dropTarget=0;pointerEvents=0;fillColor=none;top=0;left=0;bottom=0;right=0;points=[[0,0.5],[1,0.5]];portConstraint=eastwest;fontFamily=Times New Roman;" vertex="1" parent="weNy3KT9s2WzeFUNVDEB-136">
          <mxGeometry y="238" width="596" height="45" as="geometry" />
        </mxCell>
        <mxCell id="weNy3KT9s2WzeFUNVDEB-187" value="&lt;span style=&quot;font-size: 14px&quot;&gt;&amp;nbsp;Day of week&lt;/span&gt;" style="shape=partialRectangle;html=1;whiteSpace=wrap;connectable=0;overflow=hidden;fillColor=none;top=0;left=0;bottom=0;right=0;fontFamily=Times New Roman;" vertex="1" parent="weNy3KT9s2WzeFUNVDEB-186">
          <mxGeometry width="77" height="45" as="geometry" />
        </mxCell>
        <mxCell id="weNy3KT9s2WzeFUNVDEB-188" value="&lt;font style=&quot;font-size: 14px&quot;&gt;Address&lt;/font&gt;" style="shape=partialRectangle;html=1;whiteSpace=wrap;connectable=0;overflow=hidden;fillColor=none;top=0;left=0;bottom=0;right=0;fontFamily=Times New Roman;" vertex="1" parent="weNy3KT9s2WzeFUNVDEB-186">
          <mxGeometry x="77" width="98" height="45" as="geometry" />
        </mxCell>
        <mxCell id="weNy3KT9s2WzeFUNVDEB-189" value="&lt;font style=&quot;font-size: 14px&quot;&gt;Max Occupants&lt;/font&gt;" style="shape=partialRectangle;html=1;whiteSpace=wrap;connectable=0;overflow=hidden;fillColor=none;top=0;left=0;bottom=0;right=0;fontFamily=Times New Roman;" vertex="1" parent="weNy3KT9s2WzeFUNVDEB-186">
          <mxGeometry x="175" width="71" height="45" as="geometry" />
        </mxCell>
        <mxCell id="weNy3KT9s2WzeFUNVDEB-190" value="&lt;span style=&quot;font-size: 14px&quot;&gt;Check in&lt;/span&gt;" style="shape=partialRectangle;html=1;whiteSpace=wrap;connectable=0;overflow=hidden;fillColor=none;top=0;left=0;bottom=0;right=0;fontFamily=Times New Roman;" vertex="1" parent="weNy3KT9s2WzeFUNVDEB-186">
          <mxGeometry x="246" width="88" height="45" as="geometry" />
        </mxCell>
        <mxCell id="weNy3KT9s2WzeFUNVDEB-191" value="&lt;span style=&quot;font-size: 14px&quot;&gt;Joining Date&lt;/span&gt;" style="shape=partialRectangle;html=1;whiteSpace=wrap;connectable=0;overflow=hidden;fillColor=none;top=0;left=0;bottom=0;right=0;fontFamily=Times New Roman;" vertex="1" parent="weNy3KT9s2WzeFUNVDEB-186">
          <mxGeometry x="334" width="94" height="45" as="geometry" />
        </mxCell>
        <mxCell id="weNy3KT9s2WzeFUNVDEB-192" value="&lt;span style=&quot;font-size: 14px&quot;&gt;Salary&lt;/span&gt;" style="shape=partialRectangle;html=1;whiteSpace=wrap;connectable=0;overflow=hidden;fillColor=none;top=0;left=0;bottom=0;right=0;fontFamily=Times New Roman;" vertex="1" parent="weNy3KT9s2WzeFUNVDEB-186">
          <mxGeometry x="428" width="73" height="45" as="geometry" />
        </mxCell>
        <mxCell id="weNy3KT9s2WzeFUNVDEB-193" value="&lt;font style=&quot;font-size: 14px&quot;&gt;Cleaning Items&lt;/font&gt;" style="shape=partialRectangle;html=1;whiteSpace=wrap;connectable=0;overflow=hidden;fillColor=none;top=0;left=0;bottom=0;right=0;fontFamily=Times New Roman;" vertex="1" parent="weNy3KT9s2WzeFUNVDEB-186">
          <mxGeometry x="501" width="95" height="45" as="geometry" />
        </mxCell>
        <mxCell id="weNy3KT9s2WzeFUNVDEB-194" style="shape=partialRectangle;html=1;whiteSpace=wrap;collapsible=0;dropTarget=0;pointerEvents=0;fillColor=none;top=0;left=0;bottom=0;right=0;points=[[0,0.5],[1,0.5]];portConstraint=eastwest;fontFamily=Times New Roman;" vertex="1" parent="weNy3KT9s2WzeFUNVDEB-136">
          <mxGeometry y="283" width="596" height="45" as="geometry" />
        </mxCell>
        <mxCell id="weNy3KT9s2WzeFUNVDEB-195" value="&lt;font style=&quot;font-size: 14px&quot;&gt;Day of month&lt;/font&gt;" style="shape=partialRectangle;html=1;whiteSpace=wrap;connectable=0;overflow=hidden;fillColor=none;top=0;left=0;bottom=0;right=0;fontFamily=Times New Roman;" vertex="1" parent="weNy3KT9s2WzeFUNVDEB-194">
          <mxGeometry width="77" height="45" as="geometry" />
        </mxCell>
        <mxCell id="weNy3KT9s2WzeFUNVDEB-196" value="&lt;font style=&quot;font-size: 14px&quot;&gt;City/State/Zip&lt;/font&gt;" style="shape=partialRectangle;html=1;whiteSpace=wrap;connectable=0;overflow=hidden;fillColor=none;top=0;left=0;bottom=0;right=0;fontFamily=Times New Roman;" vertex="1" parent="weNy3KT9s2WzeFUNVDEB-194">
          <mxGeometry x="77" width="98" height="45" as="geometry" />
        </mxCell>
        <mxCell id="weNy3KT9s2WzeFUNVDEB-197" value="&lt;font style=&quot;font-size: 14px&quot;&gt;Suite&lt;/font&gt;" style="shape=partialRectangle;html=1;whiteSpace=wrap;connectable=0;overflow=hidden;fillColor=none;top=0;left=0;bottom=0;right=0;fontFamily=Times New Roman;" vertex="1" parent="weNy3KT9s2WzeFUNVDEB-194">
          <mxGeometry x="175" width="71" height="45" as="geometry" />
        </mxCell>
        <mxCell id="weNy3KT9s2WzeFUNVDEB-198" value="&lt;span style=&quot;font-size: 14px&quot;&gt;Check Out&lt;/span&gt;" style="shape=partialRectangle;html=1;whiteSpace=wrap;connectable=0;overflow=hidden;fillColor=none;top=0;left=0;bottom=0;right=0;fontFamily=Times New Roman;" vertex="1" parent="weNy3KT9s2WzeFUNVDEB-194">
          <mxGeometry x="246" width="88" height="45" as="geometry" />
        </mxCell>
        <mxCell id="weNy3KT9s2WzeFUNVDEB-199" value="&lt;span style=&quot;font-size: 14px&quot;&gt;Location&lt;/span&gt;" style="shape=partialRectangle;html=1;whiteSpace=wrap;connectable=0;overflow=hidden;fillColor=none;top=0;left=0;bottom=0;right=0;fontFamily=Times New Roman;" vertex="1" parent="weNy3KT9s2WzeFUNVDEB-194">
          <mxGeometry x="334" width="94" height="45" as="geometry" />
        </mxCell>
        <mxCell id="weNy3KT9s2WzeFUNVDEB-200" value="&lt;font style=&quot;font-size: 14px&quot;&gt;Location&lt;/font&gt;" style="shape=partialRectangle;html=1;whiteSpace=wrap;connectable=0;overflow=hidden;fillColor=none;top=0;left=0;bottom=0;right=0;fontFamily=Times New Roman;" vertex="1" parent="weNy3KT9s2WzeFUNVDEB-194">
          <mxGeometry x="428" width="73" height="45" as="geometry" />
        </mxCell>
        <mxCell id="weNy3KT9s2WzeFUNVDEB-201" value="&lt;font style=&quot;font-size: 14px&quot;&gt;Room Service Items&lt;/font&gt;" style="shape=partialRectangle;html=1;whiteSpace=wrap;connectable=0;overflow=hidden;fillColor=none;top=0;left=0;bottom=0;right=0;fontFamily=Times New Roman;" vertex="1" parent="weNy3KT9s2WzeFUNVDEB-194">
          <mxGeometry x="501" width="95" height="45" as="geometry" />
        </mxCell>
        <mxCell id="weNy3KT9s2WzeFUNVDEB-137" value="" style="shape=partialRectangle;html=1;whiteSpace=wrap;collapsible=0;dropTarget=0;pointerEvents=0;fillColor=none;top=0;left=0;bottom=0;right=0;points=[[0,0.5],[1,0.5]];portConstraint=eastwest;fontFamily=Times New Roman;fontSize=14;" vertex="1" parent="weNy3KT9s2WzeFUNVDEB-136">
          <mxGeometry y="328" width="596" height="45" as="geometry" />
        </mxCell>
        <mxCell id="weNy3KT9s2WzeFUNVDEB-138" value="&lt;font size=&quot;1&quot;&gt;Holiday flag&lt;/font&gt;" style="shape=partialRectangle;html=1;whiteSpace=wrap;connectable=0;overflow=hidden;fillColor=none;top=0;left=0;bottom=0;right=0;fontFamily=Times New Roman;" vertex="1" parent="weNy3KT9s2WzeFUNVDEB-137">
          <mxGeometry width="77" height="45" as="geometry" />
        </mxCell>
        <mxCell id="weNy3KT9s2WzeFUNVDEB-139" value="&lt;font style=&quot;font-size: 14px&quot;&gt;Construction Year&lt;/font&gt;" style="shape=partialRectangle;html=1;whiteSpace=wrap;connectable=0;overflow=hidden;fillColor=none;top=0;left=0;bottom=0;right=0;fontFamily=Times New Roman;" vertex="1" parent="weNy3KT9s2WzeFUNVDEB-137">
          <mxGeometry x="77" width="98" height="45" as="geometry" />
        </mxCell>
        <mxCell id="weNy3KT9s2WzeFUNVDEB-140" value="&lt;font style=&quot;font-size: 14px&quot;&gt;AC /&amp;nbsp;&lt;br&gt;Non AC&lt;/font&gt;" style="shape=partialRectangle;html=1;whiteSpace=wrap;connectable=0;overflow=hidden;fillColor=none;top=0;left=0;bottom=0;right=0;fontFamily=Times New Roman;" vertex="1" parent="weNy3KT9s2WzeFUNVDEB-137">
          <mxGeometry x="175" width="71" height="45" as="geometry" />
        </mxCell>
        <mxCell id="weNy3KT9s2WzeFUNVDEB-141" value="&lt;span style=&quot;font-size: 14px&quot;&gt;Amount Paid&lt;/span&gt;" style="shape=partialRectangle;html=1;whiteSpace=wrap;connectable=0;overflow=hidden;fillColor=none;top=0;left=0;bottom=0;right=0;fontFamily=Times New Roman;" vertex="1" parent="weNy3KT9s2WzeFUNVDEB-137">
          <mxGeometry x="246" width="88" height="45" as="geometry" />
        </mxCell>
        <mxCell id="weNy3KT9s2WzeFUNVDEB-142" value="&lt;span style=&quot;font-size: 14px&quot;&gt;Contact No.&lt;/span&gt;" style="shape=partialRectangle;html=1;whiteSpace=wrap;connectable=0;overflow=hidden;fillColor=none;top=0;left=0;bottom=0;right=0;fontFamily=Times New Roman;" vertex="1" parent="weNy3KT9s2WzeFUNVDEB-137">
          <mxGeometry x="334" width="94" height="45" as="geometry" />
        </mxCell>
        <mxCell id="weNy3KT9s2WzeFUNVDEB-143" value="&lt;font size=&quot;1&quot;&gt;Contact No&lt;/font&gt;" style="shape=partialRectangle;html=1;whiteSpace=wrap;connectable=0;overflow=hidden;fillColor=none;top=0;left=0;bottom=0;right=0;fontFamily=Times New Roman;" vertex="1" parent="weNy3KT9s2WzeFUNVDEB-137">
          <mxGeometry x="428" width="73" height="45" as="geometry" />
        </mxCell>
        <mxCell id="weNy3KT9s2WzeFUNVDEB-144" value="" style="shape=partialRectangle;html=1;whiteSpace=wrap;connectable=0;overflow=hidden;fillColor=none;top=0;left=0;bottom=0;right=0;fontFamily=Times New Roman;" vertex="1" parent="weNy3KT9s2WzeFUNVDEB-137">
          <mxGeometry x="501" width="95" height="45" as="geometry" />
        </mxCell>
        <mxCell id="weNy3KT9s2WzeFUNVDEB-210" style="shape=partialRectangle;html=1;whiteSpace=wrap;collapsible=0;dropTarget=0;pointerEvents=0;fillColor=none;top=0;left=0;bottom=0;right=0;points=[[0,0.5],[1,0.5]];portConstraint=eastwest;fontFamily=Times New Roman;fontSize=14;" vertex="1" parent="weNy3KT9s2WzeFUNVDEB-136">
          <mxGeometry y="373" width="596" height="45" as="geometry" />
        </mxCell>
        <mxCell id="weNy3KT9s2WzeFUNVDEB-211" style="shape=partialRectangle;html=1;whiteSpace=wrap;connectable=0;overflow=hidden;fillColor=none;top=0;left=0;bottom=0;right=0;fontFamily=Times New Roman;" vertex="1" parent="weNy3KT9s2WzeFUNVDEB-210">
          <mxGeometry width="77" height="45" as="geometry" />
        </mxCell>
        <mxCell id="weNy3KT9s2WzeFUNVDEB-212" value="&lt;font style=&quot;font-size: 14px&quot;&gt;Renovation &lt;br&gt;Year&lt;/font&gt;" style="shape=partialRectangle;html=1;whiteSpace=wrap;connectable=0;overflow=hidden;fillColor=none;top=0;left=0;bottom=0;right=0;fontFamily=Times New Roman;" vertex="1" parent="weNy3KT9s2WzeFUNVDEB-210">
          <mxGeometry x="77" width="98" height="45" as="geometry" />
        </mxCell>
        <mxCell id="weNy3KT9s2WzeFUNVDEB-213" style="shape=partialRectangle;html=1;whiteSpace=wrap;connectable=0;overflow=hidden;fillColor=none;top=0;left=0;bottom=0;right=0;fontFamily=Times New Roman;" vertex="1" parent="weNy3KT9s2WzeFUNVDEB-210">
          <mxGeometry x="175" width="71" height="45" as="geometry" />
        </mxCell>
        <mxCell id="weNy3KT9s2WzeFUNVDEB-214" value="&lt;font size=&quot;1&quot;&gt;Contact No.&lt;/font&gt;" style="shape=partialRectangle;html=1;whiteSpace=wrap;connectable=0;overflow=hidden;fillColor=none;top=0;left=0;bottom=0;right=0;fontFamily=Times New Roman;" vertex="1" parent="weNy3KT9s2WzeFUNVDEB-210">
          <mxGeometry x="246" width="88" height="45" as="geometry" />
        </mxCell>
        <mxCell id="weNy3KT9s2WzeFUNVDEB-215" value="" style="shape=partialRectangle;html=1;whiteSpace=wrap;connectable=0;overflow=hidden;fillColor=none;top=0;left=0;bottom=0;right=0;fontFamily=Times New Roman;" vertex="1" parent="weNy3KT9s2WzeFUNVDEB-210">
          <mxGeometry x="334" width="94" height="45" as="geometry" />
        </mxCell>
        <mxCell id="weNy3KT9s2WzeFUNVDEB-216" style="shape=partialRectangle;html=1;whiteSpace=wrap;connectable=0;overflow=hidden;fillColor=none;top=0;left=0;bottom=0;right=0;fontFamily=Times New Roman;" vertex="1" parent="weNy3KT9s2WzeFUNVDEB-210">
          <mxGeometry x="428" width="73" height="45" as="geometry" />
        </mxCell>
        <mxCell id="weNy3KT9s2WzeFUNVDEB-217" style="shape=partialRectangle;html=1;whiteSpace=wrap;connectable=0;overflow=hidden;fillColor=none;top=0;left=0;bottom=0;right=0;fontFamily=Times New Roman;" vertex="1" parent="weNy3KT9s2WzeFUNVDEB-210">
          <mxGeometry x="501" width="95" height="45" as="geometry" />
        </mxCell>
        <mxCell id="weNy3KT9s2WzeFUNVDEB-219" value="&lt;br&gt;&lt;div&gt;&lt;/div&gt;" style="rounded=0;whiteSpace=wrap;html=1;fontFamily=Times New Roman;fontSize=14;strokeColor=#000000;strokeWidth=1;align=left;" vertex="1" parent="1">
          <mxGeometry x="164" y="578" width="596" height="60" as="geometry" />
        </mxCell>
      </root>
    </mxGraphModel>
  </diagram>
</mxfile>
